<?xml version="1.0" encoding="UTF-8"?>
<svg id="Layer_2" data-name="Layer 2" xmlns="http://www.w3.org/2000/svg" viewBox="0 0 56.37 56.71">
  <defs>
    <style>
      .cls-1 {
        fill: none;
        stroke: #3c2f2a;
        stroke-miterlimit: 10;
        stroke-width: 3px;
      }
    </style>
  </defs>
  <g id="Layer_1-2" data-name="Layer 1">
    <g>
      <path class="cls-1" d="m54.04,36.22c-3.57,11.71-14.86,19.83-27.59,18.92C11.65,54.09.52,41.24,1.57,26.45,2.62,11.65,15.47.52,30.26,1.57c12.73.91,22.75,10.54,24.63,22.63"/>
      <g>
        <path class="cls-1" d="m20.12,37.78c-7.28-7.14-7.64-15.51-2.45-20.53,4.93-5.28,13.31-5.07,20.57,2.08,7.28,7.14,7.64,15.51,2.45,20.53-4.93,5.28-13.31,5.07-20.57-2.08Z"/>
        <path class="cls-1" d="m17.68,17.25s3.05,11.81,12.03,11.81c8.98,0,10.87,10.68,10.87,10.68,0,0,3.99,5.15,13.54-3.56"/>
      </g>
    </g>
  </g>
</svg>